<?xml version="1.0" encoding="utf-8"?>
<!-- Generator: Adobe Illustrator 28.0.0, SVG Export Plug-In . SVG Version: 6.00 Build 0)  -->
<svg version="1.1" id="HAT_x2B__Symbol" xmlns="http://www.w3.org/2000/svg" xmlns:xlink="http://www.w3.org/1999/xlink" x="0px"
	 y="0px" viewBox="0 0 42.5228271 21.2598419" style="enable-background:new 0 0 42.5228271 21.2598419;" xml:space="preserve">
<g>
	<g>
		<g>
			<path d="M37.3867302,4.7966924c0.5540543,0,1.0048065,0.4507494,1.0048065,1.0048051v10.5066862
				c0,0.5540543-0.4507523,1.0048046-1.0048065,1.0048046H5.1263094c-0.5540552,0-1.0048051-0.4507504-1.0048051-1.0048046
				V5.8014975c0-0.5540557,0.4507499-1.0048051,1.0048051-1.0048051H37.3867302 M37.3867302,3.9682262H5.1263094
				c-1.0124788,0-1.833271,0.8207843-1.833271,1.8332713v10.5066862c0,1.0124855,0.8207922,1.833271,1.833271,1.833271h32.2604218
				c1.0124931,0,1.8332672-0.8207855,1.8332672-1.833271V5.8014975C39.2199974,4.7890105,38.3992233,3.9682262,37.3867302,3.9682262
				L37.3867302,3.9682262z"/>
		</g>
	</g>
	<path d="M13.6625919,15.5087576h-1.1704311v-4.0826569H8.0401373v4.0826569H6.8754778V6.6774297h1.1646595v3.7963977h4.4520235
		V6.6774297h1.1704311V15.5087576z"/>
	<path d="M20.7174969,13.1979074h-3.6994381l-0.8310757,2.3108501h-1.2015963l3.3727808-8.8313274h1.0192204l3.3785515,8.8313274
		h-1.1946697L20.7174969,13.1979074z M17.3689575,12.2456331h3.0034122l-1.5051689-4.1311359L17.3689575,12.2456331z"/>
	<path d="M29.2648754,7.6297035h-2.8395081v7.8790541h-1.1577339V7.6297035h-2.8337345V6.6774297h6.8309765V7.6297035z"/>
	<path d="M33.6141701,10.7716293h2.462059v1.0607748h-2.462059v2.791028h-1.1288795v-2.791028h-2.462059v-1.0607748h2.462059
		V8.1929874h1.1288795V10.7716293z"/>
</g>
</svg>
